<svg xmlns="http://www.w3.org/2000/svg" width="118" height="40" fill="none"><path fill="#00FFB2" fill-opacity=".8" d="M21.51 21.183c1.204 0 1.797 1.464.933 2.302l-7.963 7.722a2.81 2.81 0 0 1-1.957.793H3.307c-1.204 0-1.797-1.464-.933-2.302l7.962-7.722a2.81 2.81 0 0 1 1.957-.793h9.217Z"/><path fill="#00FFB2" fill-opacity=".8" d="M21.771 14.48c1.204 0 1.798 1.463.933 2.302L14.86 24.39c-.6.581-1.402.907-2.238.907H3.568c-1.203 0-1.797-1.464-.933-2.302l7.963-7.723a2.81 2.81 0 0 1 1.957-.793h9.216Z"/><path fill="#00FFB2" fill-opacity=".8" d="M21.51 8c1.204 0 1.797 1.464.933 2.302l-7.963 7.722a2.81 2.81 0 0 1-1.957.793H3.307c-1.204 0-1.797-1.464-.933-2.302l7.962-7.722A2.81 2.81 0 0 1 12.293 8h9.217Z"/><path fill="#fff" d="M42.246 28.288c-1.664 0-3.096-.36-4.296-1.08-1.2-.736-2.128-1.752-2.784-3.048-.656-1.312-.984-2.832-.984-4.56 0-1.712.328-3.224.984-4.536.656-1.312 1.584-2.328 2.784-3.048 1.2-.736 2.632-1.104 4.296-1.104 1.968 0 3.568.472 4.8 1.416 1.232.944 2.016 2.272 2.352 3.984h-2.64c-.24-.992-.736-1.784-1.488-2.376-.736-.592-1.744-.888-3.024-.888-1.136 0-2.128.264-2.976.792-.848.528-1.504 1.28-1.968 2.256-.448.976-.672 2.144-.672 3.504 0 1.36.224 2.536.672 3.528.464.976 1.12 1.728 1.968 2.256.848.512 1.84.768 2.976.768 1.28 0 2.288-.28 3.024-.84.736-.576 1.232-1.352 1.488-2.328h2.64c-.336 1.664-1.12 2.968-2.352 3.912-1.232.928-2.832 1.392-4.8 1.392ZM52.124 28V16.096h2.16l.192 2.28a4.89 4.89 0 0 1 1.032-1.368c.416-.384.904-.68 1.464-.888.576-.208 1.224-.312 1.944-.312v2.52h-.672c-.512 0-1 .064-1.464.192a3.309 3.309 0 0 0-1.2.624c-.336.288-.6.688-.792 1.2-.176.496-.264 1.12-.264 1.872V28h-2.4Zm10.344 5.28 2.976-6.624h-.696l-4.776-10.56h2.592l3.816 8.616 3.816-8.616h2.52L65.012 33.28h-2.544Zm12.367 0V16.096h2.16l.24 1.872c.256-.368.576-.72.96-1.056.384-.336.84-.6 1.368-.792.544-.208 1.176-.312 1.896-.312 1.168 0 2.184.272 3.048.816a5.67 5.67 0 0 1 2.064 2.232c.496.944.744 2.016.744 3.216 0 1.2-.248 2.272-.744 3.216a5.712 5.712 0 0 1-2.064 2.208c-.88.528-1.904.792-3.072.792-.944 0-1.776-.184-2.496-.552a4.395 4.395 0 0 1-1.704-1.584v7.128h-2.4Zm6.216-7.08c.752 0 1.416-.176 1.992-.528a3.642 3.642 0 0 0 1.344-1.44c.336-.624.504-1.352.504-2.184 0-.816-.168-1.536-.504-2.16a3.604 3.604 0 0 0-1.344-1.464c-.576-.352-1.24-.528-1.992-.528-.736 0-1.4.176-1.992.528a3.604 3.604 0 0 0-1.344 1.464c-.32.624-.48 1.344-.48 2.16 0 .816.16 1.536.48 2.16.32.624.768 1.112 1.344 1.464a3.823 3.823 0 0 0 1.992.528ZM94.568 28c-.768 0-1.432-.12-1.992-.36a2.62 2.62 0 0 1-1.296-1.2c-.304-.56-.456-1.32-.456-2.28v-6.048h-2.04v-2.016h2.04l.312-2.976h2.088v2.976h3.408v2.016h-3.408v6.072c0 .688.144 1.16.432 1.416.288.24.784.36 1.488.36h1.344V28h-1.92Zm4.834 0V16.096h2.4V28h-2.4Zm1.2-14.256c-.464 0-.848-.144-1.152-.432-.288-.288-.432-.656-.432-1.104 0-.432.144-.784.432-1.056.304-.288.688-.432 1.152-.432.448 0 .824.144 1.128.432.304.272.456.624.456 1.056 0 .448-.152.816-.456 1.104-.304.288-.68.432-1.128.432ZM104.01 28l4.224-5.952-4.224-5.952h2.616l3.216 4.68 3.216-4.68h2.592l-4.224 5.952L115.65 28h-2.592l-3.216-4.68-3.216 4.68h-2.616Z"/></svg>